<?xml version="1.0" standalone="no"?>
<!DOCTYPE svg PUBLIC "-//W3C//DTD SVG 20010904//EN"
 "http://www.w3.org/TR/2001/REC-SVG-20010904/DTD/svg10.dtd">
<svg version="1.0" xmlns="http://www.w3.org/2000/svg"
 width="512.000000pt" height="512.000000pt" viewBox="0 0 512.000000 512.000000"
 preserveAspectRatio="xMidYMid meet">
<metadata>
Created by potrace 1.11, written by Peter Selinger 2001-2013
</metadata>
<g transform="translate(0.000000,512.000000) scale(0.100000,-0.100000)"
fill="#000000" stroke="none">
<path d="M4197 4465 c-33 -11 -70 -35 -87 -56 -3 -3 -18 -23 -35 -44 -66 -82
-159 -164 -231 -202 -22 -13 -72 -28 -111 -35 -67 -11 -142 -3 -248 27 -150
43 -188 32 -315 -91 -54 -52 -101 -91 -104 -86 -13 21 -98 52 -143 52 -73 0
-118 -29 -252 -164 l-124 -124 -41 15 c-60 23 -231 26 -297 7 -170 -50 -250
-139 -426 -474 -122 -232 -206 -361 -294 -451 -91 -94 -163 -137 -339 -205
-196 -76 -300 -143 -433 -279 -233 -238 -241 -556 -21 -830 59 -74 816 -824
862 -855 l45 -30 332 0 331 0 45 37 c143 120 237 255 316 457 41 104 95 216
126 260 35 51 139 148 202 191 33 22 62 42 65 45 3 3 28 19 55 35 52 30 68 39
220 120 175 94 284 160 328 200 51 46 117 135 117 158 0 9 4 18 9 21 16 11 33
136 28 209 -6 77 -12 113 -26 150 -8 22 3 36 115 148 69 68 133 142 144 165
33 68 21 174 -25 221 -15 14 -8 24 78 112 128 130 134 151 91 316 -47 186 -42
269 26 389 32 56 123 155 186 202 85 63 119 130 110 214 -15 136 -149 220
-279 175z"/>
</g>
</svg>
